<?xml version="1.0" encoding="utf-8"?>
<!-- Generator: Adobe Illustrator 19.2.1, SVG Export Plug-In . SVG Version: 6.00 Build 0)  -->
<svg version="1.1" id="Layer_1" xmlns="http://www.w3.org/2000/svg" xmlns:xlink="http://www.w3.org/1999/xlink" x="0px" y="0px"
	 viewBox="0 0 84.7 84.7" style="enable-background:new 0 0 84.7 84.7;" xml:space="preserve">
<style type="text/css">
	.st0{fill:#FFF;}
</style>
<path class="st0" d="M16,28.7v4c19.9,0,36,16.1,36,36h4C60.3,43.7,41,24.3,16,28.7z"/>
<path class="st0" d="M84,68.7c6-40-28-74-68-68v4c35.3,0,64,28.7,64,64"/>
<path class="st0" d="M16,52.7c-8.8,0-16,7.2-16,16c0,8.8,7.2,16,16,16s16-7.2,16-16C32,59.9,24.8,52.7,16,52.7z M16,78.7
	c-5.5,0-10-4.5-10-10c0-5.5,4.5-10,10-10c5.5,0,10,4.5,10,10C26,74.2,21.5,78.7,16,78.7z"/>
</svg>
