<?xml version="1.0" encoding="utf-8"?>
<!-- Generator: Adobe Illustrator 20.1.0, SVG Export Plug-In . SVG Version: 6.00 Build 0)  -->
<svg version="1.1" id="Layer_1" xmlns="http://www.w3.org/2000/svg" xmlns:xlink="http://www.w3.org/1999/xlink" x="0px" y="0px"
	 viewBox="0 0 84.5 84.5" style="enable-background:new 0 0 84.5 84.5;" xml:space="preserve">
<style type="text/css">
	.st0{fill:#212121;}
	.st1{fill:#FFFFFF;}
</style>
<g>
	<path class="st0" d="M84.2,42.2c0,23.2-18.8,42-42,42s-42-18.8-42-42s18.8-42,42-42S84.2,19.1,84.2,42.2"/>
</g>
<g>
	<path class="st1" d="M49.2,12L63,30.1h1.4V17.9c-2.7-2.6-9-6.4-15.2-7.2V12z"/>
	<g>
		<path class="st1" d="M44.8,43.7V45l4.4,1.6v23.6v2.7l0,1.5c6.4-1.3,12.6-4.9,15.2-7.2V47.1l4.3-2v-1.5H44.8z"/>
	</g>
	<path class="st1" d="M30,42.4c-0.2,17.8,5.2,31,14.7,31c0,0,0.1,0,0.1,0v1.4c-14.2,1-33.7-9.9-33.5-32.4v-0.1
		C11.1,20,30.6,9,44.8,10v1.4c0,0-0.1,0-0.1,0C35.1,11.4,29.8,24.6,30,42.4L30,42.4z"/>
</g>
</svg>
