<?xml version="1.0" encoding="utf-8"?>
<!-- Generator: Adobe Illustrator 19.2.1, SVG Export Plug-In . SVG Version: 6.00 Build 0)  -->
<svg version="1.1" id="Layer_1" xmlns="http://www.w3.org/2000/svg" xmlns:xlink="http://www.w3.org/1999/xlink" x="0px" y="0px"
	 viewBox="0 0 96 84.6" enable-background="new 0 0 96 84.6" xml:space="preserve">
<g>
	<path fill="#fff" d="M56.7,17.7c0-13.1-3.9-15.1-8.8-15.1c-4.7,0-8.6,1.8-8.6,15.1c0,13.4,3.9,14.5,8.6,14.5
		C52.7,32.2,56.7,30.8,56.7,17.7 M39.4,67.8c-6,0-7.8,4.4-7.8,7.7c0,4.7,4.3,9.1,16.8,9.1c14.2,0,18-4,18-9.2c0-4.5-3.4-7.7-9.1-7.7
		H39.4z M28,0.5C11.5,8.1,0,24.7,0,44.1c0,13.1,5.3,25,13.8,33.7c0-0.2,0-0.5,0-0.7c0-8.6,8.4-11.7,15.8-13.3v0
		c-7.1-1.5-10.5-6.6-10.5-11.7c0-6.9,7.7-12.9,11.5-15.5l-0.4-0.2c-6.6-3.6-10.9-10.1-10.9-18.8C19.2,10.2,22.5,4.4,28,0.5 M96,44.1
		C96,24.3,84,7.3,66.9,0c5.7,3.7,9.2,9.4,9.4,16.7c0.1,0.6,0.1,1.1,0.1,1.6c0,14.3-11.6,21.9-28.6,21.9c-4.4,0-7.3-0.2-10.8-1.3
		c-1.6,1.2-2.9,3.1-2.9,4.8c0,2.3,2.1,4.2,4.7,4.2h23.6c14.6,0,21.8,6,21.8,18.9c0,4.3-0.9,8.2-2.6,11.5C90.5,69.7,96,57.6,96,44.1"
		/>
</g>
</svg>
